<?xml version="1.0" encoding="UTF-8" standalone="no"?>
<svg
   viewBox="0 -1000 1000 1000"
   version="1.1"
   id="svg1"
   sodipodi:docname="intersection.svg"
   inkscape:version="1.3 (0e150ed, 2023-07-21)"
   xmlns:inkscape="http://www.inkscape.org/namespaces/inkscape"
   xmlns:sodipodi="http://sodipodi.sourceforge.net/DTD/sodipodi-0.dtd"
   xmlns="http://www.w3.org/2000/svg"
   xmlns:svg="http://www.w3.org/2000/svg">
  <defs
     id="defs1" />
  <sodipodi:namedview
     id="namedview1"
     pagecolor="#ffffff"
     bordercolor="#666666"
     borderopacity="1.0"
     inkscape:showpageshadow="2"
     inkscape:pageopacity="0.0"
     inkscape:pagecheckerboard="0"
     inkscape:deskcolor="#d1d1d1"
     inkscape:current-layer="svg1" />
  <path
     id="path11"
     style="color:#000000;fill:#000000;-inkscape-stroke:none"
     d="M 300.5 -559.5 C 229.14803 -559.5 168.02677 -534.31288 117.44336 -484.06445 C 66.857094 -433.8132 41.5 -372.686 41.5 -301 L 41.5 -85 C 41.5 -72.666691 45.674304 -62.204602 53.939453 -53.939453 C 62.204602 -45.674304 72.666691 -41.5 85 -41.5 C 97.333309 -41.5 107.94626 -45.668881 116.53906 -53.917969 C 125.14267 -62.177435 129.5 -72.652802 129.5 -85 L 129.5 -301 C 129.5 -347.98112 145.98042 -388.02848 179.06641 -421.44531 C 212.14291 -454.85259 252.33402 -471.16173 299.97852 -470.5 L 300 -470.5 L 300.02148 -470.5 C 346.99063 -471.16154 387.18909 -454.68982 420.93945 -420.93945 C 454.68982 -387.18909 471.16154 -346.99063 470.5 -300.02148 L 470.5 -300.00781 L 471.5 -84.992188 C 471.502 -72.662382 475.67611 -62.202801 483.93945 -53.939453 C 492.20458 -45.674334 502.66669 -41.5 515 -41.5 C 527.33331 -41.5 537.94626 -45.668881 546.53906 -53.917969 C 555.14267 -62.177435 559.5 -72.652802 559.5 -85 L 559.5 -85.003906 L 558.5 -299.98633 L 558.5 -300.00781 C 559.16475 -371.68774 534.14155 -432.97954 483.56055 -483.56055 C 432.97795 -534.14313 371.85432 -559.5 300.5 -559.5 z " />
  <path
     fill="#d60270"
     d="m 128,-85 q 0,18 -12.5,30 Q 103,-43 85,-43 67,-43 55,-55 43,-67 43,-85 v -216 q 0,-107 75.5,-182 75.5,-75 182,-75 106.5,0 182,75.5 75.5,75.5 74.5,182.5 0,0 1,215 0,18 -12.5,30 -12.5,12 -30.5,12 -18,0 -30,-12 -12,-12 -12,-30 l -1,-215 q 1,-71 -50,-122 -51,-51 -122,-50 -72,-1 -122,49.5 -50,50.5 -50,121.5 z"
     id="path1"
     style="font-variation-settings:normal;display:inline;opacity:1;vector-effect:none;fill:#0038a8;fill-opacity:1;stroke-width:32;stroke-linecap:butt;stroke-linejoin:miter;stroke-miterlimit:4;stroke-dasharray:none;stroke-dashoffset:0;stroke-opacity:1;-inkscape-stroke:none;stop-color:#000000;stop-opacity:1" />
  <path
     id="path2"
     style="font-variation-settings:normal;display:inline;opacity:1;vector-effect:none;fill:#9b4f96;fill-opacity:1;stroke-width:32;stroke-linecap:butt;stroke-linejoin:miter;stroke-miterlimit:4;stroke-dasharray:none;stroke-dashoffset:0;stroke-opacity:1;-inkscape-stroke:none;stop-color:#000000;stop-opacity:1"
     d="m 300.5,-558 c -70.99993,0 -131.66672,25.00005 -182,75 C 68.166717,-433.00005 43,-372.33326 43,-301 v 52 h 85 v -52 c 0,-47.33329 16.6667,-87.83337 50,-121.5 33.3333,-33.66663 74.00005,-50.16667 122,-49.5 47.33329,-0.66667 88.00003,16.00003 122,50 33.99997,33.99997 50.66667,74.66671 50,122 l 0.23633,51 h 85 L 557,-300 c 0.66667,-71.33326 -24.16672,-132.16672 -74.5,-182.5 -50.33328,-50.33328 -111.00007,-75.5 -182,-75.5 z" />
  <path
     id="path3"
     style="font-variation-settings:normal;display:inline;opacity:1;vector-effect:none;fill:#d60270;fill-opacity:1;stroke-width:32;stroke-linecap:butt;stroke-linejoin:miter;stroke-miterlimit:4;stroke-dasharray:none;stroke-dashoffset:0;stroke-opacity:1;-inkscape-stroke:none;stop-color:#000000;stop-opacity:1"
     d="m 300.5,-558 c -70.99993,0 -131.66672,25.00005 -182,75 -37.875773,37.62494 -61.489011,81.29495 -70.863281,131 h 87.599611 c 7.85371,-26.12432 22.09864,-49.62832 42.76367,-70.5 33.3333,-33.66663 74.00005,-50.16667 122,-49.5 47.33329,-0.66667 88.00003,16.00003 122,50 20.82752,20.82752 35.11856,44.16918 42.9375,70 h 87.68359 C 543.49641,-401.36717 520.12978,-444.87022 482.5,-482.5 432.16672,-532.83328 371.49993,-558 300.5,-558 Z" />
</svg>
