<?xml version="1.0" encoding="UTF-8" standalone="no"?>
<svg
   viewBox="0 -1000 1000 1000"
   version="1.1"
   id="svg1"
   sodipodi:docname="uni22D4.svg"
   inkscape:version="1.3 (0e150ed, 2023-07-21)"
   xml:space="preserve"
   xmlns:inkscape="http://www.inkscape.org/namespaces/inkscape"
   xmlns:sodipodi="http://sodipodi.sourceforge.net/DTD/sodipodi-0.dtd"
   xmlns="http://www.w3.org/2000/svg"
   xmlns:svg="http://www.w3.org/2000/svg"><defs
     id="defs1" /><sodipodi:namedview
     id="namedview1"
     pagecolor="#ffffff"
     bordercolor="#666666"
     borderopacity="1.0"
     inkscape:showpageshadow="2"
     inkscape:pageopacity="0.0"
     inkscape:pagecheckerboard="0"
     inkscape:deskcolor="#d1d1d1"
     inkscape:current-layer="svg1" /><path
     id="path3"
     style="color:#000000;display:inline;fill:#1a1a1a;-inkscape-stroke:none"
     d="m 300,-666.5 c -12.3472,0 -22.82257,4.35733 -31.08203,12.96094 C 260.66888,-644.94626 256.5,-634.33331 256.5,-622 v 66.75781 c -53.0967,8.23306 -99.67363,31.95935 -139.55078,71.17188 l -0.006,0.006 -0.004,0.004 C 66.687585,-433.80869 41.5,-372.68366 41.5,-301 v 216 c 0,12.333309 4.174304,22.795398 12.439453,31.060547 C 62.204602,-45.674304 72.666691,-41.5 85,-41.5 c 12.333309,0 22.94626,-4.168881 31.53906,-12.417969 C 125.14267,-62.177435 129.5,-72.652802 129.5,-85 v -216 c 0,-46.98722 16.15344,-86.86788 48.57031,-119.94727 l 0.002,-0.002 c 23.32337,-22.66749 49.4554,-37.63382 78.42773,-45.07226 V -85 c 0,12.333309 4.17431,22.795398 12.43945,31.060547 C 277.20456,-45.674304 287.66669,-41.5 300,-41.5 c 12.33331,0 22.7954,-4.174304 31.06055,-12.439453 C 339.32569,-62.204602 343.5,-72.666691 343.5,-85 v -381.01953 c 28.96579,7.44082 54.76667,22.40728 77.43945,45.08008 33.75037,33.75036 50.22209,73.94882 49.56055,120.91797 v 0.0137 l 1,215.015622 c 0.002,12.329806 4.17611,22.789387 12.43945,31.052735 C 492.2046,-45.674334 502.66669,-41.5 515,-41.5 c 12.33331,0 22.94626,-4.168881 31.53906,-12.417969 C 555.14267,-62.177435 559.5,-72.652802 559.5,-85 v -0.0039 l -1,-214.98242 v -0.0215 c 0.6647,-71.67849 -24.52715,-132.80657 -75.43945,-183.05274 l -0.002,-0.002 C 443.18297,-522.93736 396.60176,-547.001 343.5,-555.24023 V -622 c 0,-12.33331 -4.16888,-22.94626 -12.41797,-31.53906 C 322.82257,-662.14267 312.3472,-666.5 300,-666.5 Z" /><path
     id="path1"
     style="stroke-width:0.999998;font-variation-settings:normal;opacity:1;vector-effect:none;fill:#21b1ff;fill-opacity:1;stroke-linecap:butt;stroke-linejoin:miter;stroke-miterlimit:4;stroke-dasharray:none;stroke-dashoffset:0;stroke-opacity:1;-inkscape-stroke:none;stop-color:#000000;stop-opacity:1"
     d="M 43 -273.16602 L 43 -85 C 43 -73.000012 47.000008 -62.999992 55 -55 C 62.999992 -47.000008 73.000012 -43 85 -43 C 96.999988 -43 107.16667 -47.000008 115.5 -55 C 123.83333 -62.999992 128 -73.000012 128 -85 L 128 -273.16602 L 43 -273.16602 z M 258 -273.16602 L 258 -85 C 258 -73.000012 262.00001 -62.999992 270 -55 C 277.99999 -47.000008 288.00001 -43 300 -43 C 311.99999 -43 322.00001 -47.000008 330 -55 C 337.99999 -62.999992 342 -73.000012 342 -85 L 342 -273.16602 L 258 -273.16602 z M 472.125 -273.16602 L 473 -85 C 473 -73.000012 477.00001 -62.999992 485 -55 C 492.99999 -47.000008 503.00001 -43 515 -43 C 526.99999 -43 537.16667 -47.000008 545.5 -55 C 553.83332 -62.999992 558 -73.000012 558 -85 L 557.125 -273.16602 L 472.125 -273.16602 z " /><path
     id="path2-2"
     style="stroke-width:0.999998;font-variation-settings:normal;opacity:1;vector-effect:none;fill:#ffd800;fill-opacity:1;stroke-linecap:butt;stroke-linejoin:miter;stroke-miterlimit:4;stroke-dasharray:none;stroke-dashoffset:0;stroke-opacity:1;-inkscape-stroke:none;stop-color:#000000;stop-opacity:1"
     d="M 111.85352 -476.57031 C 65.994052 -427.82112 43 -369.3159 43 -301 L 43 -250.33398 L 128 -250.33398 L 128 -301 C 128 -348.33329 144.33337 -388.6667 177 -422 C 200.99998 -445.33331 228.00003 -460.66667 258 -468 L 258 -250.33398 L 342 -250.33398 L 342 -468 C 371.99997 -460.66667 398.66669 -445.33331 422 -422 C 455.99997 -388.00003 472.66667 -347.33329 472 -300 L 472.23047 -250.33398 L 557.23047 -250.33398 L 557 -300 C 557.64285 -368.78511 534.34632 -427.62161 487.25781 -476.57031 L 111.85352 -476.57031 z " /><path
     id="path3-4"
     style="font-variation-settings:normal;display:inline;opacity:1;vector-effect:none;fill:#ff218c;fill-opacity:1;stroke-width:0.999998;stroke-linecap:butt;stroke-linejoin:miter;stroke-miterlimit:4;stroke-dasharray:none;stroke-dashoffset:0;stroke-opacity:1;-inkscape-stroke:none;stop-color:#000000;stop-opacity:1"
     d="m 300,-665 c -11.99999,0 -22.00001,4.16667 -30,12.5 -7.99999,8.33333 -12,18.50001 -12,30.5 v 68 c -53.33328,7.99999 -100.00004,31.66671 -140,71 -8.15123,8.15123 -15.56825,16.61577 -22.390625,25.33398 H 228.45898 C 237.96834,-462.01103 247.79658,-465.50583 258,-468 v 10.33398 h 84 V -468 c 10.20333,2.49415 19.98972,5.98903 29.42188,10.33398 H 503.86133 C 497.17984,-466.02896 489.94314,-474.16138 482,-482 c -39.99996,-39.99996 -86.66672,-64.00001 -140,-72 v -68 c 0,-11.99999 -4.00001,-22.16667 -12,-30.5 -7.99999,-8.33333 -18.00001,-12.5 -30,-12.5 z" /></svg>
