<?xml version="1.0" encoding="UTF-8" standalone="no"?>
<svg
   viewBox="0 -1000 1000 1000"
   version="1.1"
   id="svg1"
   sodipodi:docname="uni2349.svg"
   xml:space="preserve"
   inkscape:export-filename="uni2349.svg"
   inkscape:export-xdpi="299"
   inkscape:export-ydpi="299"
   inkscape:version="1.3 (0e150ed, 2023-07-21)"
   xmlns:inkscape="http://www.inkscape.org/namespaces/inkscape"
   xmlns:sodipodi="http://sodipodi.sourceforge.net/DTD/sodipodi-0.dtd"
   xmlns="http://www.w3.org/2000/svg"
   xmlns:svg="http://www.w3.org/2000/svg"><defs
     id="defs1" /><sodipodi:namedview
     id="namedview1"
     pagecolor="#ffffff"
     bordercolor="#666666"
     borderopacity="1.0"
     inkscape:showpageshadow="2"
     inkscape:pageopacity="0.0"
     inkscape:pagecheckerboard="0"
     inkscape:deskcolor="#d1d1d1"
     inkscape:current-layer="svg1" /><path
     id="path11"
     style="color:#000000;fill:#000000;-inkscape-stroke:none"
     d="M 85 -559.5 C 72.652802 -559.5 62.177435 -555.14267 53.917969 -546.53906 C 45.668881 -537.94626 41.5 -527.33331 41.5 -515 C 41.5 -502.66669 45.674304 -492.2046 53.939453 -483.93945 L 88.072266 -449.80664 C 57.061855 -406.46443 41.5 -356.48499 41.5 -300 C 41.5 -228.31634 66.687355 -167.19155 116.93945 -116.93945 C 167.19155 -66.687355 228.31634 -41.5 300 -41.5 C 356.48499 -41.5 406.46443 -57.061855 449.80664 -88.072266 L 483.93945 -53.939453 C 492.2046 -45.674304 502.66669 -41.5 515 -41.5 C 527.33331 -41.5 537.94626 -45.668881 546.53906 -53.917969 C 555.14267 -62.177435 559.5 -72.652802 559.5 -85 C 559.5 -97.361087 554.9589 -107.84804 546.01758 -116.10156 L 511.92773 -150.19336 C 542.93815 -193.53557 558.5 -243.51501 558.5 -300 C 558.5 -371.68366 533.31265 -432.80845 483.06055 -483.06055 C 432.80845 -533.31265 371.68366 -558.5 300 -558.5 C 243.51501 -558.5 193.53557 -542.93815 150.19336 -511.92773 L 116.10156 -546.01758 C 107.84804 -554.9589 97.361087 -559.5 85 -559.5 z M 300 -470.5 C 346.9776 -470.5 387.0214 -453.85752 420.43945 -420.43945 C 453.85752 -387.0214 470.5 -346.9776 470.5 -300 C 470.5 -268.27743 463.17895 -239.81858 448.64258 -214.47852 L 214.47852 -448.64258 C 239.81858 -463.17895 268.27743 -470.5 300 -470.5 z M 151.35742 -385.52148 L 385.52148 -151.35742 C 360.18142 -136.82105 331.72257 -129.5 300 -129.5 C 253.0224 -129.5 212.9786 -146.14248 179.56055 -179.56055 C 146.14248 -212.9786 129.5 -253.0224 129.5 -300 C 129.5 -331.72257 136.82105 -360.18142 151.35742 -385.52148 z " /><path
     id="path10"
     style="font-variation-settings:normal;display:inline;opacity:1;vector-effect:none;fill:#5bcefa;fill-opacity:1;stroke:none;stroke-width:0.999995;stroke-linecap:butt;stroke-linejoin:miter;stroke-miterlimit:4;stroke-dasharray:none;stroke-dashoffset:0;stroke-opacity:1;-inkscape-stroke:none;stop-color:#000000;stop-opacity:1"
     d="m 85,-558 c -11.999976,0 -22.000016,4.16668 -30,12.5 -7.999984,8.33332 -12,18.50002 -12,30.5 0,11.99998 4.000016,22.00002 12,30 l 35,35 c -31.333271,43.33325 -47,93.33345 -47,150 0,71.33319 25.0001,132.0001 75,182 49.9999,49.9999 110.66681,75 182,75 56.66655,0 106.66675,-15.666729 150,-47 l 35,35 c 7.99998,7.999984 18.00002,12 30,12 11.99998,0 22.16668,-4.000016 30.5,-12 8.33331,-7.999984 12.5,-18.000024 12.5,-30 0,-11.999976 -4.33335,-22.00002 -13,-30 l -35,-35 c 31.33327,-43.33325 47,-93.33345 47,-150 0,-71.33319 -25.0001,-132.0001 -75,-182 -49.9999,-49.9999 -110.66681,-75 -182,-75 -56.66655,0 -106.66675,15.66673 -150,47 l -35,-35 c -7.99998,-8.66665 -18.000024,-13 -30,-13 z m 215,86 c 47.33324,0 87.8334,16.8334 121.5,50.5 33.6666,33.6666 50.5,74.16676 50.5,121.5 0,32.6666 -7.6667,62.00006 -23,88 L 212,-449 c 25.99994,-15.3333 55.3334,-23 88,-23 z m -149,84 237,237 c -25.99997,15.33332 -55.33337,23 -88,23 -47.33329,0 -87.83337,-16.83337 -121.5,-50.5 -33.66663,-33.66663 -50.5,-74.16671 -50.5,-121.5 0,-32.66663 7.66668,-62.00003 23,-88 z"
     inkscape:label="path10" /><path
     id="rect2"
     style="font-variation-settings:normal;display:inline;opacity:1;vector-effect:none;fill:#f5a9b8;fill-opacity:1;stroke-width:0.999995;stroke-linecap:butt;stroke-linejoin:miter;stroke-miterlimit:4;stroke-dasharray:none;stroke-dashoffset:0;stroke-opacity:1;-inkscape-stroke:none;stop-color:#000000;stop-opacity:1"
     d="M 89.326172,-449.0293 C 58.454704,-405.91865 43,-356.24744 43,-300 c 0,55.90403 15.427293,105.226 46.136719,148.02734 H 211.9043 C 200.10892,-159.18768 188.97288,-168.02712 178.5,-178.5 144.83337,-212.16663 128,-252.66671 128,-300 c 0,-32.66663 7.66668,-62.00003 23,-88 l 236.02734,236.02734 h 124.3418 C 541.76755,-194.85199 557,-244.18518 557,-300 c 0,-56.34002 -15.66323,-105.99714 -46.85352,-149.0293 H 386.375 c 12.43023,7.39805 24.14773,16.55203 35.125,27.5293 33.66663,33.66663 50.5,74.16671 50.5,121.5 0,32.66663 -7.66668,62.00003 -23,88 L 212,-449 c 0.0179,-0.0105 0.0368,-0.0188 0.0547,-0.0293 z"
     inkscape:label="rect2" /><path
     id="rect3"
     style="font-variation-settings:normal;display:inline;opacity:1;vector-effect:none;fill:#ffffff;fill-opacity:1;stroke-width:0.999995;stroke-linecap:butt;stroke-linejoin:miter;stroke-miterlimit:4;stroke-dasharray:none;stroke-dashoffset:0;stroke-opacity:1;-inkscape-stroke:none;stop-color:#000000;stop-opacity:1"
     d="M 47.761719,-352 C 44.597139,-335.33794 43,-318.00869 43,-300 c 0,17.65498 1.542659,34.65182 4.605469,51 H 135.30859 C 130.4459,-265.01497 128,-282.01106 128,-300 c 0,-18.40441 2.52351,-35.71172 7.39062,-52 z M 187,-352 290,-249 H 412 L 309,-352 Z m 277.36328,0 c 5.06905,16.30892 7.63672,33.63335 7.63672,52 0,18.0278 -2.42184,35.00262 -7.0918,51 h 87.53125 C 555.47817,-265.35386 557,-282.35307 557,-300 c 0,-18.01527 -1.60583,-35.34541 -4.79492,-52 z" /></svg>
